name ../AP_Laxity/ap_60.mot
datacolumns   7
datarows 75
range   7.00000000 7.74000000
cursor 1.0 1.0 0.0
keys m_key
wrap
enforce_loops no
enforce_constraints no
calc_derivatives -1.000000
event_color 0.000000 0.000000 0.000000
endheader
            time femur_r_force_vx femur_r_force_vy femur_r_force_vz femur_r_force_px femur_r_force_py femur_r_force_pz 
      7.00000000     -44.92831268      77.81812026       0.00000000      -0.06140863      -0.48102942       0.00000000 
      7.01000000     -45.00333870      77.94806914       0.00000000      -0.06140863      -0.48102942       0.00000000 
      7.02000000     -45.07786730      78.07715647       0.00000000      -0.06140863      -0.48102942       0.00000000 
      7.03000000     -45.15189664      78.20537903       0.00000000      -0.06140863      -0.48102942       0.00000000 
      7.04000000     -45.22542486      78.33273365       0.00000000      -0.06140863      -0.48102942       0.00000000 
      7.05000000     -45.29845014      78.45921715       0.00000000      -0.06140863      -0.48102942       0.00000000 
      7.06000000     -45.37097067      78.58482639       0.00000000      -0.06140863      -0.48102942       0.00000000 
      7.07000000     -45.44298464      78.70955825       0.00000000      -0.06140863      -0.48102942       0.00000000 
      7.08000000     -45.51449026      78.83340962       0.00000000      -0.06140863      -0.48102942       0.00000000 
      7.09000000     -45.58548576      78.95637742       0.00000000      -0.06140863      -0.48102942       0.00000000 
      7.10000000     -45.65596936      79.07845860       0.00000000      -0.06140863      -0.48102942       0.00000000 
      7.11000000     -45.72593931      79.19965012       0.00000000      -0.06140863      -0.48102942       0.00000000 
      7.12000000     -45.79539388      79.31994896       0.00000000      -0.06140863      -0.48102942       0.00000000 
      7.13000000     -45.86433134      79.43935214       0.00000000      -0.06140863      -0.48102942       0.00000000 
      7.14000000     -45.93274997      79.55785669       0.00000000      -0.06140863      -0.48102942       0.00000000 
      7.15000000     -46.00064808      79.67545965       0.00000000      -0.06140863      -0.48102942       0.00000000 
      7.16000000     -46.06802397      79.79215811       0.00000000      -0.06140863      -0.48102942       0.00000000 
      7.17000000     -46.13487596      79.90794917       0.00000000      -0.06140863      -0.48102942       0.00000000 
      7.18000000     -46.20120240      80.02282993       0.00000000      -0.06140863      -0.48102942       0.00000000 
      7.19000000     -46.26700164      80.13679756       0.00000000      -0.06140863      -0.48102942       0.00000000 
      7.20000000     -46.33227204      80.24984920       0.00000000      -0.06140863      -0.48102942       0.00000000 
      7.21000000     -46.39701198      80.36198206       0.00000000      -0.06140863      -0.48102942       0.00000000 
      7.22000000     -46.46121984      80.47319334       0.00000000      -0.06140863      -0.48102942       0.00000000 
      7.23000000     -46.52489403      80.58348028       0.00000000      -0.06140863      -0.48102942       0.00000000 
      7.24000000     -46.58803298      80.69284014       0.00000000      -0.06140863      -0.48102942       0.00000000 
      7.25000000     -46.65063509      80.80127019       0.00000000      -0.06140863      -0.48102942       0.00000000 
      7.26000000     -46.71269883      80.90876774       0.00000000      -0.06140863      -0.48102942       0.00000000 
      7.27000000     -46.77422265      81.01533012       0.00000000      -0.06140863      -0.48102942       0.00000000 
      7.28000000     -46.83520502      81.12095467       0.00000000      -0.06140863      -0.48102942       0.00000000 
      7.29000000     -46.89564441      81.22563877       0.00000000      -0.06140863      -0.48102942       0.00000000 
      7.30000000     -46.95553933      81.32937982       0.00000000      -0.06140863      -0.48102942       0.00000000 
      7.31000000     -47.01488830      81.43217524       0.00000000      -0.06140863      -0.48102942       0.00000000 
      7.32000000     -47.07368982      81.53402247       0.00000000      -0.06140863      -0.48102942       0.00000000 
      7.33000000     -47.13194245      81.63491898       0.00000000      -0.06140863      -0.48102942       0.00000000 
      7.34000000     -47.18964473      81.73486226       0.00000000      -0.06140863      -0.48102942       0.00000000 
      7.35000000     -47.24679522      81.83384982       0.00000000      -0.06140863      -0.48102942       0.00000000 
      7.36000000     -47.30339251      81.93187920       0.00000000      -0.06140863      -0.48102942       0.00000000 
      7.37000000     -47.35943519      82.02894797       0.00000000      -0.06140863      -0.48102942       0.00000000 
      7.38000000     -47.41492187      82.12505371       0.00000000      -0.06140863      -0.48102942       0.00000000 
      7.39000000     -47.46985116      82.22019403       0.00000000      -0.06140863      -0.48102942       0.00000000 
      7.40000000     -47.52422170      82.31436657       0.00000000      -0.06140863      -0.48102942       0.00000000 
      7.41000000     -47.57803214      82.40756898       0.00000000      -0.06140863      -0.48102942       0.00000000 
      7.42000000     -47.63128113      82.49979895       0.00000000      -0.06140863      -0.48102942       0.00000000 
      7.43000000     -47.68396736      82.59105418       0.00000000      -0.06140863      -0.48102942       0.00000000 
      7.44000000     -47.73608952      82.68133241       0.00000000      -0.06140863      -0.48102942       0.00000000 
      7.45000000     -47.78764631      82.77063138       0.00000000      -0.06140863      -0.48102942       0.00000000 
      7.46000000     -47.83863644      82.85894888       0.00000000      -0.06140863      -0.48102942       0.00000000 
      7.47000000     -47.88905865      82.94628271       0.00000000      -0.06140863      -0.48102942       0.00000000 
      7.48000000     -47.93891169      83.03263071       0.00000000      -0.06140863      -0.48102942       0.00000000 
      7.49000000     -47.98819431      83.11799071       0.00000000      -0.06140863      -0.48102942       0.00000000 
      7.50000000     -48.03690530      83.20236061       0.00000000      -0.06140863      -0.48102942       0.00000000 
      7.51000000     -48.08504343      83.28573830       0.00000000      -0.06140863      -0.48102942       0.00000000 
      7.52000000     -48.13260751      83.36812171       0.00000000      -0.06140863      -0.48102942       0.00000000 
      7.53000000     -48.17959636      83.44950879       0.00000000      -0.06140863      -0.48102942       0.00000000 
      7.54000000     -48.22600882      83.52989752       0.00000000      -0.06140863      -0.48102942       0.00000000 
      7.55000000     -48.27184372      83.60928589       0.00000000      -0.06140863      -0.48102942       0.00000000 
      7.56000000     -48.31709992      83.68767194       0.00000000      -0.06140863      -0.48102942       0.00000000 
      7.57000000     -48.36177631      83.76505371       0.00000000      -0.06140863      -0.48102942       0.00000000 
      7.58000000     -48.40587177      83.84142928       0.00000000      -0.06140863      -0.48102942       0.00000000 
      7.59000000     -48.44938520      83.91679676       0.00000000      -0.06140863      -0.48102942       0.00000000 
      7.60000000     -48.49231552      83.99115426       0.00000000      -0.06140863      -0.48102942       0.00000000 
      7.61000000     -48.53466167      84.06449993       0.00000000      -0.06140863      -0.48102942       0.00000000 
      7.62000000     -48.57642258      84.13683197       0.00000000      -0.06140863      -0.48102942       0.00000000 
      7.63000000     -48.61759724      84.20814855       0.00000000      -0.06140863      -0.48102942       0.00000000 
      7.64000000     -48.65818459      84.27844792       0.00000000      -0.06140863      -0.48102942       0.00000000 
      7.65000000     -48.69818365      84.34772833       0.00000000      -0.06140863      -0.48102942       0.00000000 
      7.66000000     -48.73759342      84.41598804       0.00000000      -0.06140863      -0.48102942       0.00000000 
      7.67000000     -48.77641291      84.48322537       0.00000000      -0.06140863      -0.48102942       0.00000000 
      7.68000000     -48.81464116      84.54943864       0.00000000      -0.06140863      -0.48102942       0.00000000 
      7.69000000     -48.85227721      84.61462620       0.00000000      -0.06140863      -0.48102942       0.00000000 
      7.70000000     -48.88932014      84.67878644       0.00000000      -0.06140863      -0.48102942       0.00000000 
      7.71000000     -48.92576903      84.74191776       0.00000000      -0.06140863      -0.48102942       0.00000000 
      7.72000000     -48.96162296      84.80401858       0.00000000      -0.06140863      -0.48102942       0.00000000 
      7.73000000     -48.99688104      84.86508737       0.00000000      -0.06140863      -0.48102942       0.00000000 
      7.74000000     -49.03154240      84.92512261       0.00000000      -0.06140863      -0.48102942       0.00000000 
